# xmcd
#
# Track frame offsets:
#	150
#	46584
#	54086
#	72953
#	99071
#	131281
#	146142
#	171152
#	187967
#
# Disc length: 2768 seconds
#
# Revision: 0
# Processed by: cddbd v1.5.2PL0 Copyright (c) Steve Scherf et al.
# Submitted via: audiograbber 1.81.03
#
DISCID=6b0ace09
DTITLE=Eagles - Long Road Out of Eden 2
DYEAR=2007
DGENRE=
TTITLE0=Long Road Out Of Eden
TTITLE1=I Dreamed There Was No War
TTITLE2=Somebody
TTITLE3=Frail Grasp On The Big Picture
TTITLE4=Last Good Time In Town
TTITLE5=I Love To Watch A Woman Dance
TTITLE6=Business As Usual
TTITLE7=Center Of The Universe
TTITLE8=It's Your World Now
EXTD=
EXTT0=
EXTT1=
EXTT2=
EXTT3=
EXTT4=
EXTT5=
EXTT6=
EXTT7=
EXTT8=
PLAYORDER=
